<?xml version="1.0" encoding="UTF-8"?>
<svg xmlns="http://www.w3.org/2000/svg" width="1200" height="1200" viewBox="0 0 1200 1200" role="img" aria-labelledby="image-title image-description">
<title id="image-title">How HPA, VPA, and Cluster Autoscaler work together - real-world platform pattern</title>
<desc id="image-description">Metrics API → HPA → replicas → Workload pods → Node autoscaler → Pending pods → VPA → requests. HPA changes replicas; VPA recommends resources; unschedulable pods drive node scaling.</desc>
<defs>
 <marker id="arrow" markerWidth="8" markerHeight="8" refX="6" refY="3" orient="auto"><path d="M0 0L6 3 0 6" fill="none" stroke="#0369a1" stroke-width="1.6"/></marker>
 <style>text{font-family:"Avenir Next","Arial",sans-serif}.title{font-weight:800;fill:#142638;letter-spacing:-1.3px}.cardText{font-weight:700;fill:#142638}.number{font-size:18px;font-weight:800;fill:#fff}.ink{fill:none;stroke:#142638;stroke-width:7;stroke-linecap:round;stroke-linejoin:round}.thin{stroke-width:5}</style>
</defs>
<rect width="1200" height="1200" fill="#f7f8f5"/>
<rect x="32" y="32" width="1136" height="1136" rx="32" fill="#fcfdfb" stroke="#e3e8e2" stroke-width="2"/>
<rect x="64" y="60" width="8" height="30" rx="4" fill="#0369a1"/>
<text x="88" y="83" font-size="19" font-weight="800" letter-spacing="2" fill="#0369a1">AUTOSCALING CONTROL LOOPS</text>
<g transform="translate(654 -30) scale(.45)"><path d="M866 250c-29-5-36-45-9-59 10-6 21-7 31-3 8-43 69-49 87-11 35-6 55 32 38 60-8 12-20 18-37 18H866z" fill="#0369a1" opacity=".14" stroke="#0369a1" stroke-width="8"/><path d="M900 275l-15 28m54-28-3 32m44-32 13 26" class="ink thin"/></g>
<text x="64" y="174" font-size="64" class="title">How HPA, VPA, and Cluster</text><text x="64" y="250" font-size="64" class="title">Autoscaler work together -</text><text x="64" y="326" font-size="64" class="title">real-world platform pattern</text>
<path d="M64 412h78" stroke="#0369a1" stroke-width="6" stroke-linecap="round"/>
<text x="164" y="420" font-size="28" fill="#536575" font-weight="500">Architecture · components and relationships</text>
<path d="M400 575H428" stroke="#0369a1" stroke-width="3" fill="none" marker-end="url(#arrow)"/><path d="M768 575H796" stroke="#0369a1" stroke-width="3" fill="none" marker-end="url(#arrow)"/><path d="M968 742V665" stroke="#0369a1" stroke-width="3" fill="none" marker-end="url(#arrow)"/><path d="M912 660V701H544V737" stroke="#0369a1" stroke-width="3" fill="none" marker-end="url(#arrow)"/><path d="M432 827H404" stroke="#0369a1" stroke-width="3" fill="none" marker-end="url(#arrow)"/><g><rect x="64" y="496" width="336" height="170" rx="22" fill="#132333" opacity=".055"/>
      <rect x="64" y="490" width="336" height="170" rx="22" fill="#e0f2fe" stroke="#0369a1" stroke-opacity=".20" stroke-width="2"/>
      <rect x="88" y="512" width="176" height="32" rx="10" fill="#0369a1"/>
      <text x="176" y="535" text-anchor="middle" class="number" style="font-size:12px">PRIMARY PATH</text>
      <text x="88" y="582" font-size="28" class="cardText">Metrics API</text>
    </g><g><rect x="432" y="496" width="336" height="170" rx="22" fill="#132333" opacity=".055"/>
      <rect x="432" y="490" width="336" height="170" rx="22" fill="#ffffff" stroke="#0369a1" stroke-opacity=".20" stroke-width="2"/>
      <rect x="456" y="512" width="176" height="32" rx="10" fill="#0369a1"/>
      <text x="544" y="535" text-anchor="middle" class="number" style="font-size:12px">PRIMARY PATH</text>
      <text x="456" y="582" font-size="28" class="cardText">HPA → replicas</text>
    </g><g><rect x="800" y="496" width="336" height="170" rx="22" fill="#132333" opacity=".055"/>
      <rect x="800" y="490" width="336" height="170" rx="22" fill="#ffffff" stroke="#0369a1" stroke-opacity=".20" stroke-width="2"/>
      <rect x="824" y="512" width="176" height="32" rx="10" fill="#0369a1"/>
      <text x="912" y="535" text-anchor="middle" class="number" style="font-size:12px">PRIMARY PATH</text>
      <text x="824" y="582" font-size="28" class="cardText">Workload pods</text>
    </g><g><rect x="64" y="748" width="336" height="170" rx="22" fill="#132333" opacity=".055"/>
      <rect x="64" y="742" width="336" height="170" rx="22" fill="#ffffff" stroke="#0369a1" stroke-opacity=".20" stroke-width="2"/>
      <rect x="88" y="764" width="176" height="32" rx="10" fill="#0369a1"/>
      <text x="176" y="787" text-anchor="middle" class="number" style="font-size:12px">SUPPORT / CONTROL</text>
      <text x="88" y="834" font-size="28" class="cardText">Node autoscaler</text>
    </g><g><rect x="432" y="748" width="336" height="170" rx="22" fill="#132333" opacity=".055"/>
      <rect x="432" y="742" width="336" height="170" rx="22" fill="#ffffff" stroke="#0369a1" stroke-opacity=".20" stroke-width="2"/>
      <rect x="456" y="764" width="176" height="32" rx="10" fill="#0369a1"/>
      <text x="544" y="787" text-anchor="middle" class="number" style="font-size:12px">SUPPORT / CONTROL</text>
      <text x="456" y="834" font-size="28" class="cardText">Pending pods</text>
    </g><g><rect x="800" y="748" width="336" height="170" rx="22" fill="#132333" opacity=".055"/>
      <rect x="800" y="742" width="336" height="170" rx="22" fill="#e0f2fe" stroke="#0369a1" stroke-opacity=".20" stroke-width="2"/>
      <rect x="824" y="764" width="176" height="32" rx="10" fill="#0369a1"/>
      <text x="912" y="787" text-anchor="middle" class="number" style="font-size:12px">SUPPORT / CONTROL</text>
      <text x="824" y="834" font-size="28" class="cardText">VPA → requests</text>
    </g>
<rect x="64" y="946" width="1072" height="126" rx="24" fill="#e0f2fe"/>
<text x="88" y="978" font-size="15" letter-spacing="2" font-weight="800" fill="#0369a1">THE TAKEAWAY</text>
<text x="88" y="1008" font-size="26" font-weight="600" fill="#142638">HPA changes replicas; VPA recommends resources; unschedulable</text><text x="88" y="1039" font-size="26" font-weight="600" fill="#142638">pods drive node scaling.</text>
<path d="M64 1104h1072" stroke="#dfe6df" stroke-width="2"/>
<text x="64" y="1140" font-size="19" font-weight="600" fill="#536575">Akhilesh Ranjan Singh · Engineering in practice</text>
<text x="1136" y="1140" font-size="16" font-weight="700" fill="#0369a1" text-anchor="end">KEEP FOR YOUR NEXT PROJECT</text>
</svg>